<svg width="400" height="250" viewBox="0 0 400 250" fill="none" xmlns="http://www.w3.org/2000/svg">
<path fill-rule="evenodd" clip-rule="evenodd" d="M398.156 107.851C398.156 95.2111 387.538 85.04 365.996 85.04C343.069 85.04 331.278 98.0111 331.278 114.04H352.333C352.333 105.716 356.916 101.376 365.689 101.376C373.998 101.376 377.533 104.396 377.533 109.173C377.533 113.949 374.918 117.202 368.458 117.202L356.547 117.211V130.911L368.147 130.902C375.536 130.902 378.613 134.14 378.613 139.38C378.613 144.311 375.382 148.998 365.996 148.998C355.84 148.998 351.224 143.76 351.224 135.129H330.224C330.224 154.702 343.84 165.182 365.996 165.182C387.842 165.182 400 155.933 400 141.138C400 133.433 396 127.884 388.307 124.649C394.922 121.104 398.153 114.631 398.153 107.849L398.156 107.851ZM296.576 163.1H318.184V87.1244H296.576V95.4356C291.009 88.4356 283.671 85.5622 275.693 85.5622C255.387 85.5622 239.213 101.38 239.213 125.111C239.213 148.842 255.387 164.66 275.693 164.66C283.671 164.66 291.009 161.784 296.576 154.787V163.098V163.1ZM298.08 125.111C298.08 137.129 289.182 145.927 278.524 145.927C268.022 145.927 258.971 137.129 258.971 125.111C258.971 113.093 268.022 104.296 278.527 104.296C289.182 104.296 298.08 113.093 298.08 125.111ZM202.769 105.356H234.169V87.1222H181.173V163.1H202.771V105.356H202.769ZM170.507 125.111C170.507 102.407 152.307 84 129.858 84C107.407 84 89.2089 102.407 89.2089 125.111C89.2089 147.816 107.409 166.222 129.858 166.222C152.309 166.222 170.507 147.816 170.507 125.111ZM153 129.044C140.54 132.036 131.862 142.756 129.858 160.022C127.853 142.756 119.176 132.036 106.716 129.044C104.573 115.529 116.371 103.709 129.858 103.689C143.344 103.709 155.142 115.529 153 129.044ZM19.7422 125.111C19.7422 112.778 27.9756 102.733 39.8089 102.733C48.9 102.733 56.4467 107.764 58.3333 115.222H78.9156C77.8489 97.92 62.2222 84 40.2844 84C17.3022 84 0 100.927 0 125.118C0 149.311 17.3022 166.222 40.2844 166.222C62.6067 166.222 78.3822 152.367 78.9156 133.438H58.3333C56.7289 142.091 49.5867 147.487 39.8111 147.487C29.0044 147.487 19.7422 137.762 19.7422 125.111Z" fill="#000078"/>
</svg>
